<?xml version="1.0" encoding="UTF-8"?>
<svg id="Layer_2" data-name="Layer 2" xmlns="http://www.w3.org/2000/svg" viewBox="0 0 845.24 826.36">
  <defs>
    <style>
      .cls-1 {
        fill: none;
      }
    </style>
  </defs>
  <g id="Layer_1-2" data-name="Layer 1">
    <path class="cls-1" d="M845.24,676.19c-200.23,200.23-524.87,200.23-725.1,0-160.18-160.18-160.18-419.89,0-580.08,128.15-128.15,335.92-128.15,464.06,0,102.52,102.52,102.52,268.73,0,371.25-82.01,82.01-214.99,82.01-297,0-65.61-65.61-65.61-171.99,0-237.6,52.49-52.49,137.59-52.49,190.08,0,41.99,41.99,41.99,110.07,0,152.06-33.59,33.59-88.06,33.59-121.65,0-26.87-26.87-26.87-70.45,0-97.32"/>
  </g>
</svg>