<?xml version="1.0" encoding="utf-8"?>
<!-- Generator: Adobe Illustrator 28.3.0, SVG Export Plug-In . SVG Version: 6.00 Build 0)  -->
<svg version="1.1" id="Lager_1" xmlns="http://www.w3.org/2000/svg" xmlns:xlink="http://www.w3.org/1999/xlink" x="0px" y="0px"
	 viewBox="0 0 1683.78 1190.55" style="enable-background:new 0 0 1683.78 1190.55;" xml:space="preserve">
<style type="text/css">
	.st0{fill:none;stroke:#1D1D1B;stroke-width:2;stroke-miterlimit:10;}
</style>
<g>
	<g>
		<polyline class="st0" points="400.76,599.92 393.37,599.65 385.97,599.42 378.57,599.88 371.17,599.69 363.77,600.04 
			356.37,600.01 348.97,600.03 341.58,600.13 334.18,600.02 326.78,600.18 319.38,599.92 311.98,599.59 304.58,599.84 
			297.18,599.59 289.77,599.62 282.37,600.22 		"/>
	</g>
	<g>
		<polyline class="st0" points="400.18,599.69 394.16,596.77 388.13,593.89 381.82,591.64 375.77,588.8 369.49,586.45 
			363.37,583.75 357.23,581.09 		"/>
	</g>
	<g>
		<polyline class="st0" points="356.84,617.09 363.16,614.9 369.47,612.67 375.52,609.8 381.82,607.54 387.91,604.77 394.16,602.36 
			400.38,599.9 		"/>
	</g>
</g>
</svg>
