<?xml version="1.0" encoding="UTF-8"?>
<svg id="intro-svg" xmlns="http://www.w3.org/2000/svg" viewBox="0 0 398.01 2102.35">
  <defs>
    <style>
      .cls-1 {
        fill: #000;
      }

      .cls-1, .cls-2 {
        stroke-width: 0px;
      }

      .cls-3 {
        fill: none;
        stroke: #000;
        stroke-miterlimit: 10;
      }

      .cls-2 {
        fill: #fff;
      }
    </style>
  </defs>
  <g id="BG">
    <rect class="cls-2" x="-193.15" y="30.57" width="785.45" height="2071.78"/>
  </g>
  <g id="FIRST-LINES">
    <path class="cls-3" d="M61.48,255.35c-6.99-15.56-11.55-32.55-12.81-49.66"/>
    <path class="cls-3" d="M300.94,306.09c-8.11,7.48-17.09,14-26.68,19.45-9.85,5.59-20.33,10.04-31.18,13.28-6.25,1.87-12.62,3.33-19.05,4.38"/>
    <path class="cls-3" d="M48.52,184c3.4-63.65,48.94-121.88,113.27-136.88.41,0,1.24-.83,1.66-.83,38.95-9.53,78.31-4.14,113.11,16.57,34.8,21.13,60.08,52.62,69.61,92.4,0,.41.83,1.24.83,1.66,1.66,7.46,2.49,14.09,3.31,21.55.83,7.04,1.24,13.67.83,20.3-.41,4.14-.41,7.87-.83,12.02-2.07,15.74-5.8,30.66-12.84,44.75-.41.83-1.13,2.1-1.54,2.93-4.97,9.53-9.23,17.79-15.38,26.06"/>
    <path class="cls-3" d="M80.58,238.52c6.25-8.58,13.72-16.22,21.92-22.94,8.52-6.98,17.81-13.11,27.5-18.35,9.67-5.23,19.95-9.35,30.54-12.3s22.27-4.8,33.63-5.19c11.61-.39,23.27.64,34.64,3.05,1.34.28,2.68.59,4.01.91"/>
    <path class="cls-3" d="M48.27,469.54c-.43-15.09,1.41-30.28,5.35-44.85,3.75-13.87,9.64-27.16,17.18-39.38s16.64-23.17,26.92-32.61c10.68-9.81,23.37-18.02,36.39-24.36,13.27-6.46,27.32-10.9,41.9-13.19,1.83-.29,3.66-.54,5.5-.77"/>
    <line class="cls-3" x1="220.01" y1="231.26" x2="150.65" y2="231.26"/>
  </g>
  <g id="FIRST-STARS">
    <path class="cls-1" d="M199.06,190.41h0c0-9.86-6.74-10.81-16.75-9.76h0c10.01-1.05,16.75-6.44,16.75-17.92h0c0,11.48,8.11,17.19,17.16,18.21h0c-9.06-1.02-17.16-.39-17.16,9.46Z"/>
    <path class="cls-1" d="M198.95,60.45h0c0-11.76-8.19-19.05-15.27-17.79h0c7.08-1.25,15.27-2.49,15.27-14.49h0c0,12,8.07,13.45,15.19,14.45h0c-7.12-1-15.19,6.07-15.19,17.83Z"/>
    <path class="cls-1" d="M199.07,240.19h0c0-4.93-3.99-8.92-8.92-8.92h0c4.93,0,8.92-3.99,8.92-8.92h0c0,4.93,3.99,8.92,8.92,8.92h0c-4.93,0-8.92,3.99-8.92,8.92Z"/>
    <path class="cls-1" d="M179.93,416.03c3.68-1.27,12.56-2.7,15.11.55,2.54,3.24,4.12,9.68,4.12,22.49,0-12.81,1.58-19.25,4.12-22.49,2.55-3.25,4.7-3.22,6.95-3.22-4.5,0-11.07-6.37-11.07-14.14,0,3.88-1.58,7.4-4.12,9.95-2.55,2.55-11.43,5.58-15.11,6.86Z"/>
  </g>
</svg>