<?xml version="1.0" encoding="UTF-8"?>
<svg id="star-svg" xmlns="http://www.w3.org/2000/svg" viewBox="0 0 785.45 689.38">
  <defs>
    <style>
      .cls-1 {
        fill: #000;
      }

      .cls-1, .cls-2 {
        stroke-width: 0px;
      }

      .cls-3 {
        fill: none;
        stroke: #000;
        stroke-miterlimit: 10;
      }

      .cls-2 {
        fill: #fff;
      }
    </style>
  </defs>
  <g id="BG">
    <rect class="cls-2" y="0" width="785.45" height="689.38"/>
  </g>
  <g id="LINES">
    <path class="cls-3" d="M241.82,175.12c-.3-4.03-.41-8.09-.34-12.16"/>
    <path class="cls-3" d="M241.48,162.96c-.04-3.19.02-6.37.19-9.54"/>
    <path class="cls-3" d="M329.04,438.97c-8.64-3.99-16.67-9-25.05-14.72-10.36-7.46-18.65-14.92-26.93-24.45-.41-.41-.41-1.24-.83-1.66-23.62-27.35-34.39-61.74-34.74-96.73"/>
    <path class="cls-3" d="M384.92,452.61c-9.68-.17-18.38-1.83-27.91-3.9-3.73-.83-7.04-2.07-10.36-2.9-5.39-2.07-10.36-3.73-15.33-5.8-.77-.33-1.53-.68-2.29-1.03"/>
    <path class="cls-3" d="M537.69,257.14c8.21,25.53,9.19,53.25,2.69,79.27"/>
    <path class="cls-3" d="M458.17,164.55c2.74,2.02,5.96,3.63,8.9,5.35,3.88,2.26,8.27,3.54,11.84,6.2,3.92,2.92,7.74,5.98,11.52,9.08,3.73,2.9,6.63,6.63,10.19,9.52"/>
    <path class="cls-3" d="M483.39,555.6c-1.66,1.24-2.9,2.07-4.56,3.31-4.56,2.9-8.29,4.97-12.84,7.87-2.49,1.66-4.97,2.07-7.21,3.54"/>
    <path class="cls-3" d="M503.42,537.78c-2.68,2.86-5.49,5.63-8.43,8.29-3.73,3.31-7.46,6.22-11.6,9.53"/>
    <path class="cls-3" d="M516.58,521.6c-3.98,5.66-8.37,11.07-13.16,16.18"/>
    <path class="cls-3" d="M521.94,513.4c-1.7,2.79-3.49,5.52-5.37,8.2"/>
    <path class="cls-3" d="M523.65,510.52c-.56.97-1.13,1.92-1.71,2.88"/>
    <path class="cls-3" d="M543.15,417.77c3.6,32.08-3.32,64.8-19.5,92.75"/>
    <path class="cls-3" d="M409.42,283.61c9.58,1.06,19.07,2.99,28.29,5.81,9.04,2.76,17.83,6.37,26.2,10.77,4.8,2.52,9.47,5.31,13.97,8.34"/>
    <path class="cls-3" d="M266.07,517.19c-15.12-23.32-23.82-50.25-24.65-78.21"/>
    <path class="cls-3" d="M286.2,541.88c-2.89-2.87-5.65-5.86-8.3-8.95"/>
    <path class="cls-3" d="M291.68,547.06c-1.86-1.67-3.69-3.4-5.48-5.18"/>
    <path class="cls-3" d="M304.03,557c-4.28-3.08-8.4-6.39-12.36-9.94"/>
    <path class="cls-3" d="M332.59,573.01c-10.17-4.32-19.72-9.66-28.56-16.02"/>
    <path class="cls-3" d="M350.39,300.91c-8.17-11.15-12.06-25.34-9.81-39.06,2.11-12.87,9.23-24.77,19.3-33.01,5.69-4.65,12.33-8.15,19.46-10"/>
    <path class="cls-3" d="M350.39,660.3c-5.29-7.22-8.81-15.75-10-24.63-1.16-8.67.04-17.48,3.34-25.57,1.8-4.44,4.2-8.63,7.09-12.44"/>
    <path class="cls-3" d="M360.83,274.76c-8.83-.07-77.69-.07-86.59,0"/>
    <path class="cls-3" d="M576.7,276.81c-8.83-.07-51.44-.07-60.33,0"/>
    <path class="cls-3" d="M39.82,302.5c-4.29-.05-10.01-.05-14.33,0"/>
    <path class="cls-3" d="M444.44,281.38c-1.56,7.01-4.56,13.67-9.13,19.53"/>
    <path class="cls-3" d="M442.42,250.92c1.07,2.83,1.89,5.79,2.43,8.84,1.24,7.25,1.14,14.61-.42,21.61"/>
    <path class="cls-3" d="M410.47,220.17c14.55,5.04,26.49,16.3,31.95,30.75"/>
    <path class="cls-3" d="M58.05,321.86c-7.51,21.69-30.71,36.19-53.2,34.11"/>
    <path class="cls-3" d="M59.15,288.27c-3.62-11.43-10.66-22.2-21-28.5-9.16-6.54-20.76-9.85-32.32-9"/>
    <path class="cls-3" d="M58.87,666.38c-3.62-11.43-10.66-22.2-21-28.5-9.16-6.54-20.76-9.85-32.32-9"/>
    <path class="cls-3" d="M5.83,12.27c11.57-.85,23.17,2.46,32.32,9"/>
    <path class="cls-3" d="M58.05,83.36c-7.51,21.69-30.71,36.19-53.2,34.11"/>
    <path class="cls-3" d="M38.15,21.27c10.34,6.31,17.38,17.08,21,28.5"/>
    <path class="cls-3" d="M-23.92,111.74c6.66-5.32,14.62-8.91,22.99-10.47s17.46-1.05,25.74,1.62c4.73,1.53,9.24,3.73,13.34,6.55"/>
    <path class="cls-3" d="M38.15,109.44c10.34,6.31,17.38,17.08,21,28.5"/>
    <path class="cls-3" d="M4.91,310.86c10.81-.77,21.75,1.82,31.02,7.43"/>
    <path class="cls-3" d="M22.54,414.19c-5.73,1.56-11.72,2.13-17.64,1.7"/>
    <path class="cls-3" d="M61.05,357.56c1.02,9.34-.46,18.89-4.32,27.46"/>
    <path class="cls-3" d="M35.93,318.29c2.64,1.6,5.14,3.43,7.47,5.47"/>
    <path class="cls-3" d="M714.65,356.6c-4.88-10.61-6.5-22.17-3.84-33.62,2.31-9.96,7.55-19.24,14.89-26.37,4.32-4.19,9.35-7.63,14.8-10.19"/>
    <path class="cls-3" d="M790.43,466.6c-17.84,11.35-41.05,8.68-58.04-3.21"/>
    <path class="cls-3" d="M730.26,255.19c-7.04-5.85-12.52-13.53-15.74-22.09-3.39-9.03-4.18-18.95-2.37-28.42,1.8-9.39,6.17-18.16,12.57-25.26,6.07-6.73,13.85-11.88,22.46-14.73,9.69-3.21,20.3-3.55,30.17-.95,1.25.33,2.48.7,3.69,1.12"/>
    <path class="cls-3" d="M751.54,205.27c9.71,2.31,20.07,1.86,29.51-1.41"/>
    <path class="cls-3" d="M713.52,169.49c3.08,10.11,9.24,19.15,17.5,25.74"/>
    <path class="cls-3" d="M544.09,79.31c-.04,3.65.3,7.3,1,10.89,1.85,9.38,6.28,18.13,12.72,25.18,6.11,6.69,13.92,11.8,22.54,14.6,1.98.64,4.01,1.17,6.05,1.57"/>
    <path class="cls-3" d="M492.95,91.09c-18.68.04-32.87.04-51.33-.11"/>
    <path class="cls-3" d="M576.7,90.98c-10.91.13-39.23.15-50.14.12"/>
    <path class="cls-3" d="M793.49,90.98c-11.92.15-44.58.15-56.52,0"/>
    <path class="cls-3" d="M799.42,34.16c-12.06.06-75.87.09-87.93.11"/>
    <path class="cls-3" d="M78.75,39.51c-24.62.06-78.05.09-102.67.11"/>
    <path class="cls-3" d="M91.97,124.63c-17.21.15-176.61.15-194.02.07"/>
    <path class="cls-3" d="M714.83,124.66c-22.35.03-180.13.03-202.64-.09"/>
    <path class="cls-3" d="M51.44,158.22c-14.14.12-37.35.12-51.44,0"/>
    <path class="cls-3" d="M275.43,124.48c-33.7.12-118.44.12-152.03,0"/>
    <path class="cls-3" d="M267.65,167.09c-7.64,0-57.04,0-64.66,0"/>
    <path class="cls-3" d="M584.34,166.83c-14.52,0-64.76,0-79.24,0"/>
    <path class="cls-3" d="M258.66,200.41c-16.13-.18-114.97-.18-131.41,0"/>
    <path class="cls-3" d="M292.51,200.41c-5.62,0-12.66,0-18.27,0"/>
    <path class="cls-3" d="M43.4,234.35c-9.99,0-27.66,0-37.62,0"/>
    <path class="cls-3" d="M373.39,241.73c-12.23.02-76.99.02-89.49-.07"/>
    <path class="cls-3" d="M216.42,241.73c-8.53.02-94.78.02-103.5-.07"/>
    <path class="cls-3" d="M454.68,241.59c-16.8.16-25.98.16-42.98.14"/>
    <path class="cls-3" d="M784.78,242.51c-28.49.02-57.06.02-85.33-.03"/>
    <path class="cls-3" d="M669.2,241.63c-11.06.06-154.77.06-165.8,0"/>
    <path class="cls-3" d="M53.9,484.15c-14.14.12-33.34.12-47.42,0"/>
    <path class="cls-3" d="M253.75,417.32c-10.39-.11-27.87-.11-38.35-.07"/>
    <path class="cls-3" d="M308.95,417.23c-8.44,0-16.89.04-25.33.1"/>
    <path class="cls-3" d="M584.81,417.33c-19.7-.12-101.25-.12-121.31-.08"/>
    <path class="cls-3" d="M751.44,65.06c-.04,22.44-.04,24.82-.03,47.05"/>
    <path class="cls-3" d="M751.43,0c-.03,23.13-.03,25.58-.02,48.49"/>
    <line class="cls-3" x1="392.21" y1="-32.97" x2="392.21" y2="34.14"/>
    <path class="cls-3" d="M392.21,338.91c-.04,26.07-.03,331.58,0,350.47"/>
    <path class="cls-3" d="M300.12,139.23c-.04,19.85-.04,50.64,0,57.36"/>
    <path class="cls-3" d="M300.12,226.19c-.04,8.34-.04,25.46,0,28.29"/>
    <path class="cls-3" d="M477.28-34.47c-.04,55.25-.04,178.45,0,233.55"/>
    <path class="cls-3" d="M301.12-7.68c-.04,10.73-.04,77,.02,87.64"/>
    <path class="cls-3" d="M638.05,11.5c-.04,37.33-.04,89.96,0,127.73"/>
    <path class="cls-3" d="M638.03,365.39c.15,17.61.15,35.61.02,53.37"/>
    <path class="cls-3" d="M638.05,174.6c.13,56.4.13,112.4-.03,168.28"/>
    <path class="cls-3" d="M751.65,495.72c.01,15.09.01,30.42.03,45.35"/>
    <path class="cls-3" d="M751.65,550.72c.01,16.31.01,58.25.02,74.57"/>
    <path class="cls-3" d="M751.67,454.21c-.01,13.93-.01,28.12-.03,41.96"/>
    <path class="cls-3" d="M751.41,280.86c.02,29.82.02,60.34.03,90.22"/>
    <path class="cls-3" d="M751.44,230.68c-.01,17.3-.01,24.94-.03,42.25"/>
    <path class="cls-3" d="M29.83,222.03c0,18.35,0,36.58-.03,54.75"/>
    <path class="cls-3" d="M29.81,143.48c.01,11.57.02,23.13.02,34.7"/>
    <path class="cls-3" d="M29.83,342.32c0,14.9,0,52.54-.03,67.33"/>
    <path class="cls-3" d="M29.82,309.92c0,4.18,0,8.37,0,12.55"/>
    <path class="cls-3" d="M29.81,290.19c0,4.1,0,13.23.01,17.24"/>
    <path class="cls-3" d="M29.81,10.17c0,3.15,0,15.7,0,18.85"/>
    <path class="cls-3" d="M738.4,598.75c38.43-.15,10.64-.15,49.18,0"/>
    <path class="cls-3" d="M6.8,533.49c18.29.23,37.04.23,54.8-.1"/>
    <path class="cls-3" d="M576.7,350.43c33.8-.27,119.33-.27,153.71,0"/>
    <path class="cls-3" d="M434.89,350.43c40.29-.27,81.29-.27,121.78,0"/>
    <path class="cls-1" d="M703.48,307.68c26.41.32,54.11.94,80.49,0,0,0,0,1,0,1h-80.49v-1h0Z"/>
    <line class="cls-3" x1="211.63" y1="350.59" x2="286.23" y2="350.59"/>
    <line class="cls-3" x1="132.01" y1="350.59" x2="206.61" y2="350.59"/>
    <line class="cls-3" x1="7.12" y1="397.7" x2="38.16" y2="397.7"/>
    <path class="cls-3" d="M543.15,417.77c-3.29-23.96-12.83-48.12-18.3-58.57-.29-.54-.65-1.04-1.08-1.47h0c-.4-.4-.74-.85-1.01-1.35-4.9-8.82-10.97-16.86-17.67-24.23"/>
    <path class="cls-3" d="M366.37,389.09c11.61-6.8,25.7-8.87,38.89-6.03"/>
    <path class="cls-3" d="M29.15,592.19c-.01,11.43,0,48.31.05,59.74"/>
    <path class="cls-3" d="M29.21,515.73c.03,24.04.03,52.29.02,70.08"/>
    <path class="cls-3" d="M29.49,470.23c.03,12.71.03,24.38,0,37.01"/>
    <path class="cls-3" d="M669.2,20.58c-15.55,13.87-38.93,17.14-57.86,8.59-5.81-2.62-11.09-6.33-15.57-10.85"/>
    <path class="cls-3" d="M186.24,2.83c-2.07-2.07-4.56-3.73-6.22-5.8-1.66-2.9-4.14-4.97-5.63-7.85"/>
    <path class="cls-3" d="M205.81,12.67c-7.11-1.94-13.64-5.3-19.57-9.84"/>
    <path class="cls-3" d="M286.31-15.61c-3.87,8.5-10.5,15.54-18.79,21.34-4.68,3.07-9.55,5.32-14.56,6.77"/>
    <path class="cls-3" d="M337.67-7.18c-7.09,9.58-17.26,16.71-28.78,19.85-5.97,1.63-12.23,2.18-18.39,1.6-6.47-.61-12.18-2.86-18.25-4.95-3.57-1.23-6.55-3.6-9.52-5.88-2.83-2.17-5.53-4.53-7.89-7.2"/>
    <path class="cls-3" d="M612.04,12.66c-10.47,14.15-27.87,23.27-45.68,21.61-7.46-.83-14.92-2.9-21.96-5.8-3.31-1.66-6.22-4.14-9.14-6.64"/>
    <path class="cls-3" d="M290.34,317.57c-22.96-.29-46.17-.29-69.34,0"/>
    <path class="cls-3" d="M441.62,429.63c-.41-11.16-4.62-22-11.85-30.51-1.97-2.32-4.15-4.46-6.5-6.39"/>
    <path class="cls-3" d="M354.72,397.62c-5.6,6.09-9.66,13.59-11.68,21.62"/>
    <line class="cls-3" y1="609.13" x2="117.53" y2="609.13"/>
    <line class="cls-3" x1="323.7" y1="606.29" x2="370.49" y2="606.29"/>
    <path class="cls-3" d="M149.11,228.01c-.45,24.36-.45,264.51,0,288.36"/>
    <path class="cls-3" d="M148.82,101.46c.05,18,.14,103.29.29,121.28"/>
    <path class="cls-3" d="M594.92,438.97c-.43-15.09,1.41-30.28,5.35-44.85,3.75-13.87,9.64-27.16,17.18-39.38,7.33-11.88,16.64-23.17,26.92-32.61,10.26-9.42,22.36-17.36,34.83-23.59"/>
  </g>
  <g id="FIRST-LINES">
    <path class="cls-3" d="M254.63,224.78c-6.99-15.56-11.55-32.55-12.81-49.66"/>
    <path class="cls-3" d="M494.09,275.52c-8.11,7.48-17.09,14-26.68,19.45-9.85,5.59-20.33,10.04-31.18,13.28-6.25,1.87-12.62,3.33-19.05,4.38"/>
    <path class="cls-3" d="M241.67,153.43c3.4-63.65,48.94-121.88,113.27-136.88.41,0,1.24-.83,1.66-.83,38.95-9.53,78.31-4.14,113.11,16.57,34.8,21.13,60.08,52.62,69.61,92.4,0,.41.83,1.24.83,1.66,1.66,7.46,2.49,14.09,3.31,21.55.83,7.04,1.24,13.67.83,20.3-.41,4.14-.41,7.87-.83,12.02-2.07,15.74-5.8,30.66-12.84,44.75-.41.83-1.13,2.1-1.54,2.93-4.97,9.53-9.23,17.79-15.38,26.06"/>
    <path class="cls-3" d="M273.73,207.95c6.25-8.58,13.72-16.22,21.92-22.94,8.52-6.98,17.81-13.11,27.5-18.35,9.67-5.23,19.95-9.35,30.54-12.3s22.27-4.8,33.63-5.19c11.61-.39,23.27.64,34.64,3.05,1.34.28,2.68.59,4.01.91"/>
    <path class="cls-3" d="M241.42,438.97c-.43-15.09,1.41-30.28,5.35-44.85,3.75-13.87,9.64-27.16,17.18-39.38s16.64-23.17,26.92-32.61c10.68-9.81,23.37-18.02,36.39-24.36,13.27-6.46,27.32-10.9,41.9-13.19,1.83-.29,3.66-.54,5.5-.77"/>
    <path class="cls-3" d="M421.1,200.7c-18.15,0-36.77,0-54.92,0"/>
    <line class="cls-3" x1="392.21" y1="118.55" x2="392.21" y2="231.62"/>
  </g>
  <g id="STARS">
    <path class="cls-1" d="M300.09,247.73h0c0-3.15-2.55-5.91-5.71-5.91h0c3.15,0,5.71-2.55,5.71-5.71h0c0,3.15,2.55,5.71,5.71,5.71h0c-3.15,0-5.71,2.76-5.71,5.91Z"/>
    <path class="cls-1" d="M751.41,321.38h0c0-7.29-5.91-13.2-13.2-13.2h0c7.29,0,13.2-8.26,13.2-15.54h0c0,7.29,5.91,15.54,13.2,15.54h0c-7.29,0-13.2,5.91-13.2,13.2Z"/>
    <path class="cls-1" d="M714.05,355.18h0c-2.21-3.45-5.28-4.84-12.57-4.84h0c7.29,0,8.82-1.76,8.72-9.05h0c.1,7.29,10.38,9.05,17.67,9.05h0c-7.29,0-16.04,1.39-13.83,4.84Z"/>
    <path class="cls-1" d="M751.64,604.57h0c0-3.77-3.05-6.05-6.82-6.05h0c3.77,0,6.82.14,6.82-14.34h0c0,14.48,3.05,14.34,6.82,14.34h0c-3.77,0-6.82,2.29-6.82,6.05Z"/>
    <path class="cls-1" d="M342.7,613.12h0c.97-2.51-1.63-6.92-6.38-6.92h0c4.75,0,11.45-4.04,12.94-6.51h0c-1.49,2.47-1.68,6.5,8.38,6.48h0c-10.07.01-13.97,4.43-14.94,6.95Z"/>
    <path class="cls-1" d="M29.15,545.42h0c0-6.68-1.89-12.09-8.57-12.09h0c6.68,0,8.57-5.41,8.57-12.09h0c0,6.68,1.89,12.09,8.57,12.09h0c-6.68,0-8.57,5.41-8.57,12.09Z"/>
    <path class="cls-1" d="M29.43,488.62h0c0-2.56-2.08-4.64-4.64-4.64h0c2.56,0,4.64-2.08,4.64-4.64h0c0,2.56,2.08,4.64,4.64,4.64h0c-2.56,0-4.64,2.08-4.64,4.64Z"/>
    <path class="cls-1" d="M539.79,398.43h0c3.62,15.75-4.65,18.99-13.96,18.99h0c9.31,0,19.43,5.85,18.31,18.77h0c1.12-12.91,6.88-18.77,23.89-18.77h0c-17.02,0-24.63-3.25-28.25-18.99Z"/>
    <path class="cls-1" d="M629.87,337.76h0c-5.3,6.93-3.98,12.56,8.18,12.56h0c-12.17,0-17.34-.43-23.8,10.94h0c6.46-11.37-.62-10.63-9.9-11.22h0c9.29.6,20.22-5.35,25.52-12.28Z"/>
    <path class="cls-1" d="M638.05,307.1h0c-.32,8.72,3.82,17.76,13.11,9.91h0c-9.29,7.85-13.56,12.35-13.1,25.42h0c-.46-13.07-4.35-9.31-9.34-3.53h0c5-5.78,9.01-23.08,9.33-31.8Z"/>
    <path class="cls-1" d="M751.41,249.07h0c0-3.67-1.59-6.64-7.81-6.64h0c6.22,0,7.81-5.98,7.81-9.65h0c0,3.67,2.97,9.65,6.64,9.65h0c-3.67,0-6.64,2.97-6.64,6.64Z"/>
    <path class="cls-1" d="M725.15,249.94v.08c-2.55-2.85-10.62-7.63-13.66-7.63h0c3.05,0,5.04-4.41,3.76-8.02h0c1.28,3.61,5.27,8.02,14.4,8.02h0c-9.13,0-7.04,4.7-4.49,7.55Z"/>
    <path class="cls-1" d="M713.95,313.53h0c1.19-3.41,6.22-5.26,9.1-5.26h0c-2.88,0-5.5-3.69-2.67-5.94h0c-2.83,2.25-7.64,5.94-11.79,5.94h0c4.15,0,6.56,1.85,5.37,5.26Z"/>
    <path class="cls-1" d="M451.61,302.83h0c4.37-2.37,2.34-7.35-1.48-9.03h0c3.81,1.68,16.45,2.1,22.76-2.37h0c-6.3,4.47-6.9,9.36-3.5,11.76h0c-3.4-2.41-13.41-2.73-17.78-.36Z"/>
    <path class="cls-1" d="M751.41,100.37h0c0-6.25-4.37-9.4-8.18-9.4h0c3.81,0,8.18,1.33,8.18-10.39h0c0,11.72,7.76,10.33,14.88,10.39h0c-7.13-.06-14.88,3.15-14.88,9.4Z"/>
    <path class="cls-1" d="M751.44,44.46h0c0-5.69-4.61-10.3-10.3-10.3h0c5.69,0,10.3-.3,10.3-10.3h0c0,10,4.61,10.3,10.3,10.3h0c-5.69,0-10.3,4.61-10.3,10.3Z"/>
    <path class="cls-1" d="M241.78,174.98h0c-.58-7.2-5.77-7.96-10.28-7.96h0c4.51,0,10.39-.83,10.1-5.79h0c.29,4.96,2.46,5.79,4.88,5.79h0c-2.42,0-4.28.85-4.7,7.96Z"/>
    <path class="cls-1" d="M300.11,187.98l-.04,3.47c0-5.59-1.03-9.62-4.11-6.57l-1.84,1.89c4.42-4.61,5.99-8.48,5.99-12.18h0c0,3.7,2.92,4.5,6.59,2.19h0c-3.68,2.31-6.59,7.49-6.59,11.19Z"/>
    <path class="cls-1" d="M344.31,250.09h0c2.14-6.5-.58-8.1-6.03-8.07h0c5.45-.03,13.69-6.68,18.93-10.41h0c-5.25,3.73-4.65,10.33.8,10.3h0c-5.45.03-11.56,1.68-13.7,8.17Z"/>
    <path class="cls-1" d="M441.83,249.23h0c-2.96-4.7-.14-7.71,4.16-7.71h0c-4.3,0-10.39-3.35-14.12-7.46h0c3.73,4.12,2.85,7.46-1.44,7.46h0c4.3,0,8.44,3.01,11.4,7.71Z"/>
    <path class="cls-1" d="M29.81,168.17h0c0-5.45-4.41-9.86-9.86-9.86h0c5.45,0,9.86-4.41,9.86-9.86h0c0,5.45,4.41,9.86,9.86,9.86h0c-5.45,0-9.86,4.41-9.86,9.86Z"/>
    <path class="cls-1" d="M58.24,47.27h0c-1.62-4.65-9.89-7.79-19.23-7.79h0c9.34,0,12.51-5.14,9.73-9.2h0c2.78,4.07,12.73,9.2,22.07,9.2h0c-9.34,0-14.19,3.14-12.57,7.79Z"/>
    <path class="cls-1" d="M43.03,105.15h0c-3.25,2.57-4.9,4.76-.41,7.35h0c-4.49-2.58-8.95-1.39-12.01.13h0c3.05-1.52,1.21-6.35-3.28-8.94h0c4.49,2.58,12.45,4.02,15.7,1.45Z"/>
    <path class="cls-1" d="M29.88,320.68h0c0-2.8-2.07-6.54-4.99-7.3h0c2.92.76,4.99-.03,4.99-2.83h0c0,2.8,2.23,6.07,4.99,7.3h0c-2.75-1.24-4.99.03-4.99,2.83Z"/>
    <path class="cls-1" d="M29.8,306.44h0c0-2.22-1.8-4.03-4.03-4.03h0c2.22,0,4.02-2.44,4.02-5.4h0c0,2.96,1.93,5.36,8.09,5.36h0c-6.16,0-8.09,1.84-8.09,4.06Z"/>
    <path class="cls-1" d="M29.86,359.57h0c0-4.33,3.64-9.79,7.73-12.06h0c-4.09,2.27-7.73.7-7.73-3.63h0c0,4.33-3.15,9.8-7.73,10.75h0c4.58-.95,7.73.61,7.73,4.94Z"/>
    <path class="cls-1" d="M29.65,267.88h0c0-6.35-4.69-14.85-11.32-16.57h0c6.63,1.73,11.32-.07,11.32-6.41h0c1.19,10.39,7.95,12.38,17.5,22.26h0c-6.81-5.52-16-16.55-17.5.72Z"/>
    <path class="cls-1" d="M29.37,646.03h0c0-6.35-4.69-14.85-11.32-16.57h0c6.63,1.73,11.32-.07,11.32-6.41h0c1.19,10.39,7.95,12.38,17.5,22.26h0c-6.81-5.52-16-16.55-17.5.72Z"/>
    <path class="cls-1" d="M29.81,239.42h0c0-2.41-3.13-5.07-5.54-5.07h0c2.41,0,5.54-3.13,5.54-5.54h0c0,2.41,3.13,5.54,5.54,5.54h0c-2.41,0-5.54,2.66-5.54,5.07Z"/>
    <path class="cls-1" d="M242.24,147.21h0c1.18-12.9-7.4-22.72-19.41-22.72h0c12.01,0,26.2-10.86,31.43-22.72h0c-5.23,11.85-6.8,22.72,15.59,22.72h0c-22.39,0-26.42,9.82-27.6,22.72Z"/>
    <path class="cls-1" d="M58.86,136.79h0c-3.06-6.84-1.25-12.17,5.31-12.17h0c-6.56,0-15.54-7.67-21.98-12.17h0c6.43,4.5,4.77,12.17-1.79,12.17h0c6.56,0,15.39,5.32,18.46,12.17Z"/>
    <path class="cls-1" d="M542.35,139.06h0c-1.37-8.19,3.08-14.57,10.78-14.57h0c-7.7,0-14.54-6.96-17.89-14.57h0c3.35,7.6-2.3,14.57-10,14.57h0c7.7,0,15.74,6.37,17.11,14.57Z"/>
    <path class="cls-1" d="M543.73,176.37h0c.11-4.52,1.95-9.51,13.01-9.51h0c-11.06,0-12.48-6.85-12.48-13.41h0c0,6.55-2.52,13.41-9.32,13.41h0c6.8,0,8.9,4.99,8.79,9.51Z"/>
    <path class="cls-1" d="M726.44,191.32h0c-2.59-3.26-11.08,1.24-11.91,4.9h0c.83-3.65,4.08-15.17,2.09-18.83h0c1.98,3.65,9.42-.4,14.91-4.23h0c-5.49,3.84-7.67,14.91-5.09,18.17Z"/>
    <path class="cls-1" d="M301.38,65.76h0c0-10.73-6.03-20.53-13.89-11.63h0c7.86-8.9,13.79-24.72,13.79-35.44h0c0,10.73,3.45,21.06,18.25,11.52h0c-14.8,9.54-18.15,24.82-18.15,35.55Z"/>
    <path class="cls-1" d="M29.73,24.23h0c0-2.88,1.28-7.93,4.82-5.13h0c-3.54-2.8-4.82-8.27-4.82-13.18h0c0,4.91-1.95,9.81-7.65,7.85h0c5.7,1.96,7.66,7.58,7.65,10.46Z"/>
    <path class="cls-1" d="M301.15,22.46h0c0-6.79-3.45-7.86-7.75-7.95h0c4.3.09,7.75-2.76,7.75-5.52h0c0,2.76,3.64,4.96,7.75,3.68h0c-4.11,1.29-7.75,3-7.75,9.79Z"/>
    <path class="cls-1" d="M534.52,216.75h0c-4.33,10.51-15.6,24.99-26.95,24.99h0c8.52.02,12.05,3.03,7.85,9.4h0c4.2-6.38,7-9.55,24.38-9.4h0c-15.64-2.06-9.61-14.48-5.27-24.99Z"/>
    <path class="cls-1" d="M276.35,204.81h0c1.93-2.27,1.52-4.1-.92-4.1h0c2.44,0,5.99-1.84,7.92-4.1h0c-1.93,2.27-1.52,4.1.92,4.1h0c-2.44,0-5.99,1.84-7.92,4.1Z"/>
    <path class="cls-1" d="M251.98,218.31h0c-3-7.71-7.44-17.87-18.86-17.87h0c11.42,0,10.59-9.59,9.48-17.82h0c1.11,8.23,4.33,17.82,13.93,17.82h0c-9.6,0-7.55,10.15-4.55,17.87Z"/>
    <path class="cls-1" d="M477.08,51.08h0c0-7.4-6.42-19.82-17.13-24.21h0c10.71,4.39,17.13.33,17.13-10.17h0c0,10.5,8.07,24.19,15.87,32.75h0c-7.79-8.56-15.87-5.77-15.87,1.63Z"/>
    <path class="cls-1" d="M302.93,423.62h0c-4.18-3.54-11.67-6.41-16.73-6.41h0c5.06,0,5.77-2.87,1.59-6.41h0c4.18,3.54,11.67,6.41,16.73,6.41h0c-5.06,0-5.77,2.87-1.59,6.41Z"/>
    <path class="cls-1" d="M241.42,430.15h0c.77-10.27-10.84-12.96-15.83-12.96h0c4.99,0,17.53-3.23,19.7-17.43h0c-2.17,14.2,1.99,17.43,6.99,17.43h0c-4.99,0-10.08,2.69-10.85,12.96Z"/>
    <path class="cls-1" d="M263.28,355.99h0c1.32-2.95.79-5.46-2.59-5.46h0c3.37,0,6.16-.61,8.99-3.94h0c-2.83,3.34-1.74,3.94,1.64,3.94h0c-3.37,0-6.72,2.5-8.04,5.46Z"/>
    <path class="cls-1" d="M250.38,382.7h0c2.57-5.02,3.86-21.11-.53-30.04h0c4.39,8.93,6.62,14.19,15.7-.23h0c-9.08,14.42-.37,29.15,2.77,35.66h0c-4.61-7.74-15.38-10.4-17.94-5.39Z"/>
    <path class="cls-1" d="M250.35,354.86h0c-1.19-3.6-4.24-4.55-8.04-4.55h0c3.8,0,6.39-.89,5.64-4.61h0c.75,3.72,4.32,4.61,8.12,4.61h0c-3.8,0-6.91.95-5.71,4.55Z"/>
    <path class="cls-1" d="M638.02,42.01h0c0-4.84-3.91-7.75-8.74-8.06h0c4.83.3,8.74-4.63,8.74-9.47h0c0,4.84,4.09,9.4,8.74,8.06h0c-4.65,1.35-8.74,4.63-8.74,9.47Z"/>
    <path class="cls-1" d="M591.59,29.45h0c5.56-2.53,7.97-8.14,5.4-10.17h0c2.57,2.03,6.89,1.9,9.64-.3h0c-2.76,2.2-1.17,6.82,3.04,9.45h0c-4.2-2.63-12.52-1.51-18.08,1.02Z"/>
    <path class="cls-1" d="M548.32,100.53h0c-2.35-4.9-7.92-9.48-14.42-9.48h0c6.5,0,10.15-5.26,10.19-10.83h0c-.04,5.57,6.86,10.83,13.36,10.83h0c-6.5,0-11.48,4.58-9.13,9.48Z"/>
    <path class="cls-1" d="M568.85,123.38c-2.41-.92-4.97-2.3-7.69-4.79-.05-.01-.11-.03-.16-.04.03.03.06.06.08.09,5,5.34,4.72,5.85,1.29,5.85,3.78,0,9.26,2.57,14.32,4.15-.75-.23-1.23-.78-1.67-1.15-2.06-1.71-1.54-2.96,1.57-2.96-1.89,0-4.81-.04-7.75-1.15Z"/>
    <path class="cls-1" d="M477.43,194.66h0c0-10.49-7.2-22.2-11.44-25.39h0c4.25,3.18,11.44-2.11,11.44-12.59h0c0,10.49,1.97,18.66,7.69,24.28h0c-7.83-5.29-7.69,3.21-7.69,13.7Z"/>
    <path class="cls-1" d="M477.25,101.46h0c0-5.73-4.64-10.37-10.37-10.37h0c5.73,0,10.37-5.67,10.37-16.24h0c0,10.57,4.64,16.24,10.37,16.24h0c-5.73,0-10.37,4.64-10.37,10.37Z"/>
    <path class="cls-1" d="M10.61,422.67h0c0-3.99-3.24-7.23-7.23-7.23h0c3.99,0,7.23-3.24,7.23-7.23h0c0,3.99,3.28,7.5,7.23,6.91h0c-3.95.6-7.23,3.56-7.23,7.56Z"/>
    <path class="cls-1" d="M29.81,403.43h0c0-3.17-2.1-5.74-4.69-5.74h0c2.59,0,4.69-2.57,4.69-5.74h0c0,3.17,2.44,5.74,7.37,5.74h0c-4.93,0-7.37,2.57-7.37,5.74Z"/>
    <path class="cls-1" d="M185.99,2.38h0c-3.87-2.48-8.45-5.96-12.2-5.96h0c3.75,0,4.38-2.83,1.39-6.31h0c2.99,3.49,8.45,6.31,12.2,6.31h0c-3.75,0-5.25,3.48-1.39,5.96Z"/>
    <path class="cls-1" d="M341.5,283.12h0c-1.13-5.56-3.99-8.32-7.87-8.32h0c3.88,0,6-4.06,6.33-9.75h0c-.33,5.69,3.83,9.75,7.71,9.75h0c-3.88,0-7.3,2.76-6.17,8.32Z"/>
    <path class="cls-1" d="M544.49,292.9h0c-.87-11.23,3.45-16.57,13.61-16.57h0c-10.16,0-15.94-1.46-18.67-12.78h0c2.74,11.32-2.36,10.36-11.08,12.8h0c12.87-.06,12.57,4.04,16.14,16.55Z"/>
    <path class="cls-1" d="M528.08,365.31h0c-4.32-7.8-.46-14.93,10.35-14.93h0c-10.81,0-22.43-4.97-27.57-11.47h0c5.15,6.51-1.59,11.48-7.16,11.49h0c5.57,0,20.06,7.11,24.38,14.92Z"/>
    <path class="cls-1" d="M260.52,9.45h0c3.9-1.87,3.56-5.05.35-7.25h0c3.21,2.2,6.36,3.74,9.98,1.36h0c-3.62,2.37.26,5.43,3.94,6.71h0c-3.68-1.28-10.37-2.69-14.27-.82Z"/>
    <path class="cls-1" d="M335.9,293.84h0c4.64-1.59,9.99.79,12.94,4.71h0c-2.95-3.92-.76-8.87,3.88-10.45h0c-4.64,1.59-9.7-.89-11.28-5.54h0c1.59,4.64-.89,9.7-5.54,11.28Z"/>
    <path class="cls-1" d="M438.59,295.87h0c2.09-2.46.03-6.01-3.05-7.17h0c3.09,1.17,6.96-.8,8.27-4.15h0c-1.31,3.35.35,7.13,3.7,8.44h0c-3.35-1.31-6.83.44-8.92,2.89Z"/>
    <path class="cls-1" d="M751.66,482.08h0c0-7.86-5.49-11.32-8.98-12.65h0c3.49,1.33,8.98.87,8.98-6.57h0c0,7.45,3.1,10.37,6.87,10.87h0c-3.77-.49-6.87.5-6.87,8.35Z"/>
    <path class="cls-1" d="M243.2,324.49h0c-.42-5.37-4.81-6.93-10.11-6.93h0c6.64-.16,8.94-3.31,8.78-8.22h0c.16,4.91,3.6,7.97,8.61,7.97h0c-5.01,0-7.7,1.81-7.28,7.18Z"/>
    <path class="cls-1" d="M29.15,617.63h0c0-4.7-3.81-8.5-8.5-8.5h0c4.7,0,8.5-3.81,8.5-8.5h0c0,4.7,3.81,8.5,8.5,8.5h0c-4.7,0-8.5,3.81-8.5,8.5Z"/>
    <path class="cls-1" d="M638.04,261.19h0c0-10.11-5.8-19.6-14.75-19.6h0c8.95,0,14.75-6.03,14.75-19.6h0c0,13.58,4.33,19.6,14.75,19.6h0c-10.41,0-14.75,9.49-14.75,19.6Z"/>
    <path class="cls-1" d="M638.04,137.18h0c0-6.48-5.8-12.56-14.75-12.56h0c8.95,0,14.75-3.86,14.75-12.56h0c0,8.7,4.33,12.56,14.75,12.56h0c-10.41,0-14.75,6.08-14.75,12.56Z"/>
    <path class="cls-1" d="M149.11,212.97h0c0-6.78-5.5-12.27-12.27-12.27h0c6.78,0,12.27-5.5,12.27-12.27h0c0,6.78,5.5,12.27,12.27,12.27h0c-6.78,0-12.27,5.5-12.27,12.27Z"/>
    <path class="cls-1" d="M149.11,252.4h0c0-5.79-4.69-10.48-10.48-10.48h0c5.79,0,10.48-4.69,10.48-10.48h0c0,5.79,4.69,10.48,10.48,10.48h0c-5.79,0-10.48,4.69-10.48,10.48Z"/>
    <path class="cls-1" d="M149.11,135.15h0c0-5.79-4.69-10.48-10.48-10.48h0c5.79,0,10.48-4.69,10.48-10.48h0c0,5.79,4.69,10.48,10.48,10.48h0c-5.79,0-10.48,4.69-10.48,10.48Z"/>
    <path class="cls-1" d="M373.08,385.46c3.68-1.27,12.56-2.7,15.11.55,2.54,3.24,4.12,9.68,4.12,22.49,0-12.81,1.58-19.25,4.12-22.49,2.55-3.25,4.7-3.22,6.95-3.22-4.5,0-11.07-6.37-11.07-14.14,0,3.88-1.58,7.4-4.12,9.95-2.55,2.55-11.43,5.58-15.11,6.86Z"/>
  </g>
  <g id="FIRST-STARS">
    <path class="cls-1" d="M392.21,159.85h0c0-9.86-6.74-10.81-16.75-9.76h0c10.01-1.05,16.75-6.44,16.75-17.92h0c0,11.48,8.11,17.19,17.16,18.21h0c-9.06-1.02-17.16-.39-17.16,9.46Z"/>
    <path class="cls-1" d="M392.1,29.88h0c0-11.76-8.19-19.05-15.27-17.79h0c7.08-1.25,15.27-2.49,15.27-14.49h0c0,12,8.07,13.45,15.19,14.45h0c-7.12-1-15.19,6.07-15.19,17.83Z"/>
    <path class="cls-1" d="M392.22,209.62h0c0-4.93-3.99-8.92-8.92-8.92h0c4.93,0,8.92-3.99,8.92-8.92h0c0,4.93,3.99,8.92,8.92,8.92h0c-4.93,0-8.92,3.99-8.92,8.92Z"/>
  </g>
  <g id="TITLE">
    <g>
      <path class="cls-1" d="M257.66,125.53c-.43,0-.77-.13-1.02-.38-.26-.26-.38-.6-.38-1.02v-39.5h-12.66c-.43,0-.77-.13-1.02-.38s-.38-.6-.38-1.02v-.96c0-.47.13-.83.38-1.09.26-.26.6-.38,1.02-.38h29.28c.47,0,.83.13,1.09.38.26.26.38.62.38,1.09v.96c0,.43-.13.77-.38,1.02s-.62.38-1.09.38h-12.59v39.5c0,.43-.13.77-.38,1.02-.26.26-.62.38-1.09.38h-1.15Z"/>
      <path class="cls-1" d="M288.22,125.53c-.43,0-.77-.13-1.02-.38-.26-.26-.38-.6-.38-1.02v-42.57c0-.43.13-.77.38-1.02.26-.26.6-.38,1.02-.38h1.09c.43,0,.77.13,1.02.38.26.26.38.6.38,1.02v15.15c1.15-1.49,2.55-2.71,4.19-3.64,1.64-.94,3.82-1.41,6.55-1.41,2.9,0,5.32.63,7.25,1.89,1.94,1.26,3.39,2.96,4.35,5.11.96,2.15,1.44,4.59,1.44,7.32v18.15c0,.43-.13.77-.38,1.02s-.6.38-1.02.38h-1.09c-.43,0-.77-.13-1.02-.38s-.38-.6-.38-1.02v-17.83c0-3.41-.83-6.08-2.49-8.02-1.66-1.94-4.09-2.91-7.29-2.91-3.03,0-5.47.97-7.32,2.91-1.85,1.94-2.78,4.61-2.78,8.02v17.83c0,.43-.13.77-.38,1.02-.26.26-.6.38-1.02.38h-1.09Z"/>
      <path class="cls-1" d="M343.77,126.17c-4.13,0-7.41-1.35-9.84-4.06-2.43-2.71-3.81-6.25-4.15-10.64-.04-.64-.06-1.49-.06-2.56s.02-1.92.06-2.56c.21-2.9.9-5.45,2.05-7.67,1.15-2.22,2.74-3.94,4.76-5.18,2.02-1.24,4.42-1.85,7.19-1.85,2.98,0,5.52.66,7.61,1.98,2.09,1.32,3.7,3.22,4.83,5.69,1.13,2.47,1.69,5.41,1.69,8.82v.96c0,.43-.14.77-.42,1.02-.28.26-.63.38-1.05.38h-22.76v.64c.08,1.92.53,3.74,1.34,5.47.81,1.73,1.96,3.13,3.45,4.22,1.49,1.09,3.26,1.63,5.31,1.63,1.83,0,3.36-.28,4.57-.83,1.21-.55,2.18-1.16,2.91-1.82.72-.66,1.19-1.16,1.41-1.5.38-.55.68-.88.9-.99.21-.11.55-.16,1.02-.16h1.02c.38,0,.71.12.99.35.28.23.39.54.35.93-.04.6-.37,1.33-.99,2.21-.62.87-1.49,1.74-2.62,2.59-1.13.85-2.5,1.56-4.12,2.11-1.62.55-3.43.83-5.43.83ZM333.67,106.93h20.33v-.26c0-2.13-.41-4.05-1.21-5.75-.81-1.7-1.98-3.06-3.52-4.06-1.53-1-3.37-1.5-5.5-1.5s-3.95.5-5.46,1.5c-1.51,1-2.66,2.35-3.45,4.06-.79,1.7-1.18,3.62-1.18,5.75v.26Z"/>
      <path class="cls-1" d="M374.64,125.53c-.43,0-.77-.13-1.02-.38-.26-.26-.38-.6-.38-1.02v-30.36c0-.43.13-.78.38-1.05.26-.28.6-.42,1.02-.42h1.02c.43,0,.78.14,1.05.42.28.28.42.63.42,1.05v2.94c.77-1.49,1.88-2.6,3.32-3.32,1.45-.72,3.24-1.09,5.37-1.09h2.37c.43,0,.77.13,1.02.38s.38.6.38,1.02v.9c0,.43-.13.77-.38,1.02-.26.26-.6.38-1.02.38h-2.75c-2.56,0-4.58.75-6.07,2.24-1.49,1.49-2.24,3.52-2.24,6.07v19.82c0,.43-.14.77-.42,1.02-.28.26-.63.38-1.05.38h-1.02Z"/>
      <path class="cls-1" d="M413.95,126.17c-4.13,0-7.42-1.35-9.84-4.06-2.43-2.71-3.81-6.25-4.16-10.64-.04-.64-.06-1.49-.06-2.56s.02-1.92.06-2.56c.21-2.9.89-5.45,2.05-7.67,1.15-2.22,2.74-3.94,4.76-5.18,2.02-1.24,4.42-1.85,7.19-1.85,2.98,0,5.52.66,7.61,1.98,2.09,1.32,3.7,3.22,4.83,5.69,1.13,2.47,1.69,5.41,1.69,8.82v.96c0,.43-.14.77-.42,1.02-.28.26-.63.38-1.05.38h-22.76v.64c.08,1.92.53,3.74,1.34,5.47s1.96,3.13,3.45,4.22c1.49,1.09,3.26,1.63,5.31,1.63,1.83,0,3.36-.28,4.57-.83,1.21-.55,2.18-1.16,2.91-1.82.72-.66,1.19-1.16,1.41-1.5.38-.55.68-.88.89-.99.21-.11.55-.16,1.02-.16h1.02c.38,0,.71.12.99.35.28.23.39.54.35.93-.04.6-.37,1.33-.99,2.21-.62.87-1.49,1.74-2.62,2.59-1.13.85-2.5,1.56-4.12,2.11-1.62.55-3.43.83-5.43.83ZM403.85,106.93h20.33v-.26c0-2.13-.41-4.05-1.21-5.75-.81-1.7-1.98-3.06-3.52-4.06-1.53-1-3.37-1.5-5.5-1.5s-3.95.5-5.47,1.5c-1.51,1-2.66,2.35-3.45,4.06-.79,1.7-1.18,3.62-1.18,5.75v.26Z"/>
      <path class="cls-1" d="M252.3,200.45c-.43,0-.77-.13-1.02-.38-.26-.26-.38-.6-.38-1.02v-30.43c0-.43.13-.77.38-1.02.26-.26.6-.38,1.02-.38h1.09c.43,0,.77.13,1.02.38.26.26.38.6.38,1.02v3c1.15-1.49,2.55-2.71,4.19-3.64,1.64-.94,3.82-1.41,6.55-1.41,2.9,0,5.32.63,7.25,1.89,1.94,1.26,3.39,2.96,4.35,5.11.96,2.15,1.44,4.59,1.44,7.32v18.15c0,.43-.13.77-.38,1.02s-.6.38-1.02.38h-1.09c-.43,0-.77-.13-1.02-.38s-.38-.6-.38-1.02v-17.83c0-3.41-.83-6.08-2.49-8.02-1.66-1.94-4.09-2.91-7.29-2.91-3.03,0-5.47.97-7.32,2.91-1.85,1.94-2.78,4.61-2.78,8.02v17.83c0,.43-.13.77-.38,1.02-.26.26-.6.38-1.02.38h-1.09Z"/>
      <path class="cls-1" d="M308.42,201.09c-3.07,0-5.64-.64-7.7-1.92-2.07-1.28-3.64-3.03-4.73-5.24-1.09-2.22-1.67-4.69-1.76-7.41-.04-.64-.06-1.53-.06-2.69s.02-2.05.06-2.68c.08-2.77.67-5.25,1.76-7.45,1.09-2.19,2.66-3.93,4.73-5.21,2.07-1.28,4.63-1.92,7.7-1.92s5.63.64,7.7,1.92c2.07,1.28,3.64,3.02,4.73,5.21,1.09,2.2,1.67,4.68,1.76,7.45.04.64.06,1.53.06,2.68s-.02,2.05-.06,2.69c-.09,2.73-.67,5.2-1.76,7.41-1.09,2.22-2.66,3.96-4.73,5.24-2.07,1.28-4.63,1.92-7.7,1.92ZM308.42,197.38c2.98,0,5.41-.96,7.29-2.88,1.87-1.92,2.88-4.69,3-8.31.04-.64.06-1.43.06-2.37s-.02-1.73-.06-2.36c-.13-3.66-1.13-6.45-3-8.34-1.88-1.9-4.3-2.84-7.29-2.84s-5.41.95-7.29,2.84c-1.88,1.9-2.88,4.68-3,8.34-.04.64-.06,1.43-.06,2.36s.02,1.73.06,2.37c.13,3.62,1.13,6.39,3,8.31,1.88,1.92,4.3,2.88,7.29,2.88Z"/>
      <path class="cls-1" d="M262.08,275.37c-2.22,0-3.96-.47-5.24-1.41-1.28-.94-2.17-2.22-2.68-3.84-.51-1.62-.77-3.43-.77-5.43v-18.86h-4.99c-.43,0-.77-.13-1.02-.38-.26-.26-.38-.6-.38-1.02v-.9c0-.43.13-.77.38-1.02s.6-.38,1.02-.38h4.99v-10.74c0-.43.13-.77.38-1.02s.6-.38,1.02-.38h1.09c.43,0,.77.13,1.02.38s.38.6.38,1.02v10.74h7.93c.43,0,.77.13,1.02.38.26.26.38.6.38,1.02v.9c0,.43-.13.77-.38,1.02s-.6.38-1.02.38h-7.93v18.6c0,2.26.37,4.03,1.12,5.31.75,1.28,2.08,1.92,4,1.92h3.45c.43,0,.77.13,1.02.38.26.26.38.6.38,1.02v.9c0,.43-.13.77-.38,1.02s-.6.38-1.02.38h-3.77Z"/>
      <path class="cls-1" d="M282.47,275.37c-.43,0-.77-.13-1.02-.38-.26-.26-.38-.6-.38-1.02v-42.57c0-.43.13-.77.38-1.02.26-.26.6-.38,1.02-.38h1.09c.43,0,.77.13,1.02.38.26.26.38.6.38,1.02v15.15c1.15-1.49,2.55-2.71,4.19-3.64,1.64-.94,3.82-1.41,6.55-1.41,2.9,0,5.32.63,7.25,1.89,1.94,1.26,3.39,2.96,4.35,5.11.96,2.15,1.44,4.59,1.44,7.32v18.15c0,.43-.13.77-.38,1.02s-.6.38-1.02.38h-1.09c-.43,0-.77-.13-1.02-.38s-.38-.6-.38-1.02v-17.83c0-3.41-.83-6.08-2.49-8.02-1.66-1.94-4.09-2.91-7.29-2.91-3.03,0-5.47.97-7.32,2.91-1.85,1.94-2.78,4.61-2.78,8.02v17.83c0,.43-.13.77-.38,1.02-.26.26-.6.38-1.02.38h-1.09Z"/>
      <path class="cls-1" d="M326.63,235.29c-.43,0-.77-.13-1.02-.38-.26-.26-.38-.6-.38-1.02v-2.43c0-.43.13-.78.38-1.05.26-.28.6-.42,1.02-.42h2.43c.43,0,.78.14,1.05.42.28.28.42.63.42,1.05v2.43c0,.43-.14.77-.42,1.02-.28.26-.63.38-1.05.38h-2.43ZM327.34,275.37c-.43,0-.77-.13-1.02-.38-.26-.26-.38-.6-.38-1.02v-30.43c0-.43.13-.77.38-1.02.26-.26.6-.38,1.02-.38h1.09c.43,0,.77.13,1.02.38.26.26.38.6.38,1.02v30.43c0,.43-.13.77-.38,1.02-.26.26-.6.38-1.02.38h-1.09Z"/>
      <path class="cls-1" d="M348.75,275.37c-.43,0-.77-.13-1.02-.38-.26-.26-.38-.6-.38-1.02v-30.43c0-.43.13-.77.38-1.02.26-.26.6-.38,1.02-.38h1.09c.43,0,.77.13,1.02.38.26.26.38.6.38,1.02v3c1.15-1.49,2.55-2.71,4.19-3.64,1.64-.94,3.82-1.41,6.55-1.41,2.9,0,5.32.63,7.25,1.89,1.94,1.26,3.39,2.96,4.35,5.11.96,2.15,1.44,4.59,1.44,7.32v18.15c0,.43-.13.77-.38,1.02s-.6.38-1.02.38h-1.09c-.43,0-.77-.13-1.02-.38s-.38-.6-.38-1.02v-17.83c0-3.41-.83-6.08-2.49-8.02-1.66-1.94-4.09-2.91-7.29-2.91-3.03,0-5.47.97-7.32,2.91-1.85,1.94-2.78,4.61-2.78,8.02v17.83c0,.43-.13.77-.38,1.02-.26.26-.6.38-1.02.38h-1.09Z"/>
      <path class="cls-1" d="M404.62,289.43c-2.73,0-4.95-.36-6.68-1.09-1.73-.73-3.07-1.61-4.03-2.65-.96-1.04-1.63-2.09-2.01-3.13-.38-1.04-.6-1.89-.64-2.52-.04-.43.08-.78.38-1.05.3-.28.64-.42,1.02-.42h.9c.34,0,.64.07.9.22.26.15.47.52.64,1.12.26.68.67,1.48,1.25,2.4.58.92,1.49,1.71,2.75,2.4,1.26.68,2.99,1.02,5.21,1.02,2.34,0,4.3-.3,5.88-.89,1.58-.6,2.78-1.65,3.61-3.16.83-1.51,1.25-3.61,1.25-6.3v-4.41c-1.07,1.45-2.46,2.65-4.19,3.61-1.72.96-3.91,1.44-6.55,1.44-2.47,0-4.57-.45-6.3-1.34-1.73-.9-3.12-2.09-4.19-3.58-1.07-1.49-1.85-3.15-2.36-4.99-.51-1.83-.79-3.69-.83-5.56-.04-1.19-.04-2.39,0-3.58.04-1.87.32-3.73.83-5.56.51-1.83,1.3-3.49,2.36-4.99,1.06-1.49,2.46-2.68,4.19-3.58,1.73-.9,3.82-1.34,6.3-1.34,2.64,0,4.83.49,6.55,1.47,1.73.98,3.12,2.17,4.19,3.58v-2.94c0-.43.13-.78.38-1.05.26-.28.6-.42,1.02-.42h1.02c.42,0,.78.14,1.05.42.28.28.41.63.41,1.05v31.13c0,2.73-.4,5.2-1.21,7.41-.81,2.22-2.25,3.98-4.31,5.31-2.07,1.32-5,1.98-8.79,1.98ZM404.68,272.3c2.43,0,4.39-.58,5.88-1.73,1.49-1.15,2.59-2.59,3.29-4.31.7-1.73,1.1-3.46,1.18-5.21.04-.64.06-1.41.06-2.3s-.02-1.66-.06-2.3c-.09-1.75-.48-3.48-1.18-5.21-.7-1.73-1.8-3.16-3.29-4.31-1.49-1.15-3.45-1.73-5.88-1.73s-4.44.55-5.91,1.66c-1.47,1.11-2.53,2.56-3.16,4.35s-1,3.71-1.09,5.75c-.04,1.19-.04,2.39,0,3.58.08,2.05.45,3.96,1.09,5.75.64,1.79,1.69,3.24,3.16,4.35,1.47,1.11,3.44,1.66,5.91,1.66Z"/>
      <path class="cls-1" d="M252.3,350.29c-.43,0-.77-.13-1.02-.38-.26-.26-.38-.6-.38-1.02v-30.43c0-.42.13-.77.38-1.02.26-.26.6-.38,1.02-.38h1.09c.43,0,.77.13,1.02.38.26.26.38.6.38,1.02v2.24c1.06-1.36,2.33-2.42,3.8-3.16,1.47-.75,3.25-1.12,5.34-1.12,4.77,0,8.18,2,10.23,6.01.98-1.83,2.42-3.29,4.31-4.38,1.9-1.09,4.08-1.63,6.55-1.63,2.26,0,4.29.52,6.1,1.57,1.81,1.04,3.24,2.59,4.28,4.63,1.04,2.05,1.57,4.6,1.57,7.67v18.6c0,.43-.13.77-.38,1.02-.26.26-.6.38-1.02.38h-1.09c-.43,0-.77-.13-1.02-.38-.26-.26-.38-.6-.38-1.02v-17.96c0-2.81-.41-5-1.21-6.55-.81-1.55-1.88-2.65-3.2-3.29-1.32-.64-2.75-.96-4.28-.96-1.28,0-2.58.32-3.9.96-1.32.64-2.42,1.74-3.29,3.29-.87,1.56-1.31,3.74-1.31,6.55v17.96c0,.43-.13.77-.38,1.02s-.6.38-1.02.38h-1.09c-.43,0-.77-.13-1.02-.38-.26-.26-.38-.6-.38-1.02v-17.96c0-2.81-.43-5-1.28-6.55-.85-1.55-1.94-2.65-3.26-3.29-1.32-.64-2.71-.96-4.15-.96-1.28,0-2.58.32-3.9.96-1.32.64-2.42,1.74-3.29,3.29-.87,1.56-1.31,3.72-1.31,6.49v18.03c0,.43-.13.77-.38,1.02-.26.26-.6.38-1.02.38h-1.09Z"/>
      <path class="cls-1" d="M323.12,350.93c-2.05,0-3.93-.43-5.66-1.28-1.73-.85-3.12-1.99-4.19-3.42-1.07-1.43-1.6-3.04-1.6-4.83,0-2.9,1.17-5.22,3.52-6.97,2.34-1.75,5.39-2.88,9.14-3.39l10.1-1.41v-2.24c0-2.26-.69-4.04-2.08-5.34-1.39-1.3-3.59-1.95-6.62-1.95-2.22,0-4.01.44-5.37,1.31-1.36.87-2.3,2.01-2.81,3.42-.21.64-.62.96-1.21.96h-1.02c-.51,0-.87-.14-1.09-.42-.21-.28-.32-.61-.32-.99,0-.6.22-1.34.67-2.24.45-.9,1.14-1.78,2.08-2.65.94-.87,2.15-1.61,3.64-2.21,1.49-.6,3.3-.89,5.43-.89,2.51,0,4.59.34,6.23,1.02,1.64.68,2.92,1.57,3.84,2.65.92,1.09,1.57,2.29,1.95,3.61.38,1.32.58,2.62.58,3.9v21.29c0,.43-.13.77-.38,1.02-.26.26-.6.38-1.02.38h-1.09c-.43,0-.77-.13-1.02-.38-.26-.26-.38-.6-.38-1.02v-3c-.51.77-1.24,1.53-2.17,2.3-.94.77-2.14,1.42-3.61,1.95s-3.31.8-5.53.8ZM323.76,347.22c1.96,0,3.75-.43,5.37-1.28,1.62-.85,2.91-2.16,3.87-3.93.96-1.77,1.44-4,1.44-6.68v-2.17l-8.25,1.15c-3.49.47-6.14,1.28-7.93,2.43-1.79,1.15-2.68,2.6-2.68,4.35,0,1.41.4,2.56,1.21,3.45.81.89,1.84,1.57,3.1,2.01,1.26.45,2.55.67,3.87.67Z"/>
      <path class="cls-1" d="M367.99,364.35c-2.73,0-4.95-.36-6.68-1.09-1.73-.72-3.07-1.61-4.03-2.65-.96-1.04-1.63-2.09-2.01-3.13-.38-1.04-.6-1.89-.64-2.53-.04-.43.08-.78.38-1.05.3-.28.64-.42,1.02-.42h.9c.34,0,.64.07.9.22.26.15.47.52.64,1.12.26.68.67,1.48,1.25,2.4.58.92,1.49,1.71,2.75,2.4,1.26.68,2.99,1.02,5.21,1.02,2.34,0,4.3-.3,5.88-.9,1.58-.6,2.78-1.65,3.61-3.16s1.25-3.61,1.25-6.3v-4.41c-1.07,1.45-2.46,2.65-4.19,3.61s-3.91,1.44-6.55,1.44c-2.47,0-4.57-.45-6.3-1.34-1.73-.89-3.12-2.09-4.19-3.58-1.07-1.49-1.85-3.15-2.36-4.99-.51-1.83-.79-3.69-.83-5.56-.04-1.19-.04-2.39,0-3.58.04-1.88.32-3.73.83-5.56.51-1.83,1.3-3.49,2.36-4.99,1.06-1.49,2.46-2.68,4.19-3.58,1.73-.89,3.82-1.34,6.3-1.34,2.64,0,4.83.49,6.55,1.47,1.73.98,3.12,2.17,4.19,3.58v-2.94c0-.43.13-.78.38-1.05.26-.28.6-.42,1.02-.42h1.02c.43,0,.78.14,1.05.42.28.28.42.63.42,1.05v31.13c0,2.73-.41,5.2-1.21,7.42-.81,2.22-2.25,3.98-4.31,5.31-2.07,1.32-5,1.98-8.79,1.98ZM368.06,347.22c2.43,0,4.39-.58,5.88-1.73,1.49-1.15,2.59-2.59,3.29-4.31.7-1.73,1.1-3.46,1.18-5.21.04-.64.06-1.41.06-2.3s-.02-1.66-.06-2.3c-.09-1.75-.48-3.48-1.18-5.21-.7-1.73-1.8-3.16-3.29-4.31-1.49-1.15-3.45-1.73-5.88-1.73s-4.44.55-5.91,1.66c-1.47,1.11-2.52,2.56-3.16,4.35s-1,3.71-1.09,5.75c-.04,1.19-.04,2.39,0,3.58.08,2.05.45,3.96,1.09,5.75.64,1.79,1.69,3.24,3.16,4.35,1.47,1.11,3.44,1.66,5.91,1.66Z"/>
      <path class="cls-1" d="M400.59,310.21c-.43,0-.77-.13-1.02-.38-.26-.26-.38-.6-.38-1.02v-2.43c0-.42.13-.78.38-1.05.25-.28.6-.42,1.02-.42h2.43c.43,0,.78.14,1.05.42.28.28.42.63.42,1.05v2.43c0,.43-.14.77-.42,1.02-.28.26-.63.38-1.05.38h-2.43ZM401.29,350.29c-.43,0-.77-.13-1.02-.38-.26-.26-.38-.6-.38-1.02v-30.43c0-.42.13-.77.38-1.02.25-.26.6-.38,1.02-.38h1.09c.42,0,.77.13,1.02.38s.38.6.38,1.02v30.43c0,.43-.13.77-.38,1.02s-.6.38-1.02.38h-1.09Z"/>
      <path class="cls-1" d="M433.89,350.93c-2.98,0-5.52-.59-7.61-1.76-2.09-1.17-3.67-2.87-4.76-5.08s-1.67-4.84-1.76-7.86c-.04-.64-.06-1.49-.06-2.56s.02-1.92.06-2.56c.08-3.07.67-5.7,1.76-7.89,1.09-2.19,2.67-3.88,4.76-5.05,2.09-1.17,4.62-1.76,7.61-1.76,2.26,0,4.21.31,5.85.93,1.64.62,2.99,1.43,4.06,2.43,1.06,1,1.88,2.1,2.43,3.29.55,1.19.85,2.37.9,3.52.04.43-.09.77-.38,1.02-.3.26-.64.38-1.02.38h-.9c-.43,0-.73-.1-.93-.29-.19-.19-.39-.54-.61-1.05-.89-2.43-2.12-4.12-3.67-5.08-1.56-.96-3.46-1.44-5.72-1.44-2.9,0-5.29.88-7.19,2.65-1.9,1.77-2.91,4.66-3.04,8.66-.09,1.49-.09,2.98,0,4.47.13,4.01,1.14,6.89,3.04,8.66,1.9,1.77,4.29,2.65,7.19,2.65,2.26,0,4.17-.48,5.72-1.44,1.55-.96,2.78-2.65,3.67-5.08.21-.51.42-.86.61-1.05s.5-.29.93-.29h.9c.38,0,.72.13,1.02.38.3.26.43.6.38,1.02-.04.94-.24,1.88-.58,2.81-.34.94-.86,1.85-1.57,2.75-.7.89-1.57,1.68-2.59,2.37s-2.25,1.23-3.68,1.63-3.04.61-4.83.61Z"/>
    </g>
    <g>
      <path class="cls-1" d="M497.38,83.88c-.43,0-.78-.13-1.04-.39-.26-.26-.39-.6-.39-1.04v-2.46c0-.43.13-.79.39-1.07.26-.28.6-.42,1.04-.42h2.46c.43,0,.79.14,1.07.42.28.28.42.64.42,1.07v2.46c0,.43-.14.78-.42,1.04-.28.26-.64.39-1.07.39h-2.46ZM498.09,124.52c-.43,0-.78-.13-1.04-.39-.26-.26-.39-.6-.39-1.04v-30.85c0-.43.13-.78.39-1.04.26-.26.6-.39,1.04-.39h1.1c.43,0,.78.13,1.04.39.26.26.39.61.39,1.04v30.85c0,.43-.13.78-.39,1.04-.26.26-.61.39-1.04.39h-1.1Z"/>
      <path class="cls-1" d="M528.3,125.16c-2.25,0-4.18-.3-5.8-.91s-2.95-1.33-3.99-2.17c-1.04-.84-1.8-1.67-2.3-2.5-.5-.82-.77-1.45-.81-1.88-.04-.47.11-.83.45-1.07.35-.24.67-.36.97-.36h.97c.26,0,.49.04.68.13.19.09.44.32.75.71.56.74,1.21,1.44,1.94,2.11.73.67,1.67,1.2,2.82,1.59,1.14.39,2.58.58,4.31.58,2.59,0,4.73-.5,6.42-1.49,1.69-.99,2.53-2.46,2.53-4.41,0-1.21-.34-2.18-1-2.92-.67-.73-1.8-1.38-3.4-1.94-1.6-.56-3.76-1.14-6.48-1.75-2.72-.65-4.81-1.43-6.25-2.33-1.45-.91-2.43-1.95-2.95-3.14-.52-1.19-.78-2.47-.78-3.86,0-1.51.43-2.99,1.3-4.44.86-1.45,2.15-2.63,3.86-3.56,1.71-.93,3.86-1.39,6.45-1.39,2.12,0,3.92.28,5.41.84,1.49.56,2.71,1.24,3.66,2.04.95.8,1.65,1.59,2.11,2.37.45.78.7,1.4.75,1.88.04.43-.09.78-.39,1.04-.3.26-.65.39-1.04.39h-.97c-.35,0-.63-.07-.84-.23-.22-.15-.41-.36-.58-.62-.43-.69-.95-1.34-1.56-1.94-.61-.6-1.42-1.09-2.43-1.46-1.02-.37-2.39-.55-4.12-.55-2.59,0-4.52.53-5.77,1.59-1.25,1.06-1.88,2.41-1.88,4.05,0,.95.26,1.78.78,2.5s1.49,1.36,2.92,1.94c1.43.58,3.5,1.2,6.22,1.85,2.76.61,4.95,1.35,6.55,2.24,1.6.89,2.73,1.93,3.4,3.14.67,1.21,1,2.64,1,4.28,0,1.73-.49,3.33-1.46,4.8-.97,1.47-2.42,2.65-4.34,3.53-1.92.89-4.29,1.33-7.1,1.33Z"/>
      <path class="cls-1" d="M397.89,200.98c-2.25,0-4.18-.3-5.8-.91-1.62-.6-2.95-1.33-3.99-2.17-1.04-.84-1.8-1.67-2.3-2.5-.5-.82-.77-1.45-.81-1.88-.04-.47.11-.83.45-1.07.35-.24.67-.36.97-.36h.97c.26,0,.49.04.68.13.19.09.44.32.75.71.56.74,1.21,1.44,1.94,2.11.73.67,1.67,1.2,2.82,1.59,1.14.39,2.58.58,4.31.58,2.59,0,4.73-.5,6.42-1.49,1.69-.99,2.53-2.46,2.53-4.41,0-1.21-.34-2.18-1-2.92-.67-.73-1.8-1.38-3.4-1.94-1.6-.56-3.76-1.14-6.48-1.75-2.72-.65-4.81-1.43-6.25-2.33-1.45-.91-2.43-1.95-2.95-3.14-.52-1.19-.78-2.47-.78-3.86,0-1.51.43-2.99,1.3-4.44.86-1.45,2.15-2.63,3.86-3.56,1.71-.93,3.86-1.39,6.45-1.39,2.12,0,3.92.28,5.41.84,1.49.56,2.71,1.24,3.66,2.04.95.8,1.65,1.59,2.11,2.37.45.78.7,1.4.75,1.88.04.43-.09.78-.39,1.04-.3.26-.65.39-1.04.39h-.97c-.35,0-.63-.07-.84-.23-.22-.15-.41-.36-.58-.62-.43-.69-.95-1.34-1.56-1.94-.61-.6-1.42-1.09-2.43-1.46-1.02-.37-2.39-.55-4.12-.55-2.59,0-4.52.53-5.77,1.59-1.25,1.06-1.88,2.41-1.88,4.05,0,.95.26,1.78.78,2.5s1.49,1.36,2.92,1.94c1.43.58,3.5,1.2,6.22,1.85,2.76.61,4.95,1.35,6.55,2.24,1.6.89,2.73,1.93,3.4,3.14.67,1.21,1,2.64,1,4.28,0,1.73-.49,3.33-1.46,4.8-.97,1.47-2.42,2.65-4.34,3.53-1.92.89-4.29,1.33-7.1,1.33Z"/>
      <path class="cls-1" d="M438.21,200.98c-2.94,0-5.37-.64-7.29-1.91-1.92-1.27-3.35-3.01-4.28-5.22-.93-2.2-1.39-4.67-1.39-7.39v-18.41c0-.43.13-.78.39-1.04.26-.26.6-.39,1.04-.39h1.1c.43,0,.78.13,1.04.39.26.26.39.61.39,1.04v18.08c0,7.39,3.22,11.08,9.66,11.08,3.07,0,5.53-.98,7.39-2.95,1.86-1.97,2.79-4.68,2.79-8.13v-18.08c0-.43.13-.78.39-1.04.26-.26.6-.39,1.04-.39h1.1c.43,0,.78.13,1.04.39.26.26.39.61.39,1.04v30.85c0,.43-.13.78-.39,1.04-.26.26-.61.39-1.04.39h-1.1c-.43,0-.78-.13-1.04-.39-.26-.26-.39-.6-.39-1.04v-3.05c-1.17,1.51-2.56,2.74-4.18,3.69-1.62.95-3.83,1.43-6.64,1.43Z"/>
      <path class="cls-1" d="M482.73,200.98c-3.03,0-5.6-.59-7.71-1.78-2.12-1.19-3.73-2.91-4.83-5.15-1.1-2.25-1.7-4.9-1.78-7.97-.04-.65-.06-1.51-.06-2.59s.02-1.94.06-2.59c.09-3.11.68-5.78,1.78-8,1.1-2.22,2.71-3.93,4.83-5.12,2.12-1.19,4.69-1.78,7.71-1.78,2.29,0,4.27.31,5.93.94,1.66.63,3.04,1.45,4.12,2.46,1.08,1.02,1.9,2.13,2.46,3.34.56,1.21.86,2.4.91,3.56.04.43-.09.78-.39,1.04-.3.26-.65.39-1.04.39h-.91c-.43,0-.75-.1-.94-.29s-.4-.55-.62-1.07c-.91-2.46-2.15-4.18-3.73-5.15-1.58-.97-3.51-1.46-5.8-1.46-2.94,0-5.37.9-7.29,2.69-1.92,1.79-2.95,4.72-3.08,8.78-.09,1.51-.09,3.02,0,4.54.13,4.06,1.16,6.99,3.08,8.78,1.92,1.79,4.35,2.69,7.29,2.69,2.29,0,4.22-.49,5.8-1.46,1.58-.97,2.82-2.69,3.73-5.15.22-.52.42-.88.62-1.07s.51-.29.94-.29h.91c.39,0,.73.13,1.04.39.3.26.43.61.39,1.04-.04.95-.24,1.9-.58,2.85-.35.95-.88,1.88-1.59,2.79-.71.91-1.59,1.71-2.62,2.4-1.04.69-2.28,1.24-3.73,1.65s-3.08.62-4.89.62Z"/>
      <path class="cls-1" d="M512.68,200.33c-.43,0-.78-.13-1.04-.39-.26-.26-.39-.6-.39-1.04v-43.17c0-.43.13-.78.39-1.04.26-.26.61-.39,1.04-.39h1.1c.43,0,.78.13,1.04.39.26.26.39.61.39,1.04v15.36c1.17-1.51,2.58-2.74,4.25-3.69,1.66-.95,3.88-1.43,6.64-1.43,2.94,0,5.39.64,7.36,1.91,1.97,1.27,3.43,3,4.41,5.19.97,2.18,1.46,4.66,1.46,7.42v18.41c0,.43-.13.78-.39,1.04-.26.26-.61.39-1.04.39h-1.1c-.43,0-.78-.13-1.04-.39-.26-.26-.39-.6-.39-1.04v-18.08c0-3.46-.84-6.17-2.53-8.13-1.68-1.97-4.15-2.95-7.39-2.95-3.07,0-5.54.98-7.42,2.95-1.88,1.97-2.82,4.68-2.82,8.13v18.08c0,.43-.13.78-.39,1.04-.26.26-.61.39-1.04.39h-1.1Z"/>
      <path class="cls-1" d="M485.46,276.79c-2.07,0-3.99-.43-5.74-1.3-1.75-.86-3.17-2.02-4.25-3.47-1.08-1.45-1.62-3.08-1.62-4.89,0-2.94,1.19-5.29,3.56-7.06,2.38-1.77,5.47-2.92,9.27-3.44l10.24-1.43v-2.27c0-2.29-.7-4.09-2.11-5.41-1.4-1.32-3.64-1.98-6.71-1.98-2.25,0-4.06.44-5.44,1.33-1.38.89-2.33,2.04-2.85,3.47-.22.65-.63.97-1.23.97h-1.04c-.52,0-.89-.14-1.1-.42-.22-.28-.32-.62-.32-1,0-.6.23-1.36.68-2.27.45-.91,1.16-1.8,2.11-2.69.95-.89,2.18-1.63,3.69-2.24,1.51-.6,3.35-.91,5.51-.91,2.55,0,4.66.35,6.32,1.04,1.66.69,2.96,1.59,3.89,2.69.93,1.1,1.59,2.32,1.98,3.66.39,1.34.58,2.66.58,3.95v21.58c0,.43-.13.78-.39,1.04-.26.26-.61.39-1.04.39h-1.1c-.43,0-.78-.13-1.04-.39-.26-.26-.39-.6-.39-1.04v-3.05c-.52.78-1.25,1.56-2.2,2.33-.95.78-2.17,1.44-3.66,1.98-1.49.54-3.36.81-5.61.81ZM486.1,273.03c1.99,0,3.8-.43,5.44-1.3,1.64-.86,2.95-2.19,3.92-3.99.97-1.79,1.46-4.05,1.46-6.77v-2.2l-8.36,1.17c-3.54.48-6.22,1.3-8.04,2.46-1.82,1.17-2.72,2.64-2.72,4.41,0,1.43.41,2.59,1.23,3.5.82.91,1.87,1.59,3.14,2.04,1.27.45,2.58.68,3.92.68Z"/>
      <path class="cls-1" d="M528.3,276.79c-2.25,0-4.18-.3-5.8-.91s-2.95-1.33-3.99-2.17c-1.04-.84-1.8-1.67-2.3-2.5-.5-.82-.77-1.45-.81-1.88-.04-.47.11-.83.45-1.07.35-.24.67-.36.97-.36h.97c.26,0,.49.04.68.13.19.09.44.32.75.71.56.74,1.21,1.44,1.94,2.11.73.67,1.67,1.2,2.82,1.59,1.14.39,2.58.58,4.31.58,2.59,0,4.73-.5,6.42-1.49,1.69-.99,2.53-2.46,2.53-4.41,0-1.21-.34-2.18-1-2.92-.67-.73-1.8-1.38-3.4-1.94-1.6-.56-3.76-1.14-6.48-1.75-2.72-.65-4.81-1.43-6.25-2.33-1.45-.91-2.43-1.95-2.95-3.14-.52-1.19-.78-2.47-.78-3.86,0-1.51.43-2.99,1.3-4.44.86-1.45,2.15-2.63,3.86-3.56,1.71-.93,3.86-1.39,6.45-1.39,2.12,0,3.92.28,5.41.84,1.49.56,2.71,1.24,3.66,2.04.95.8,1.65,1.59,2.11,2.37.45.78.7,1.4.75,1.88.04.43-.09.78-.39,1.04-.3.26-.65.39-1.04.39h-.97c-.35,0-.63-.07-.84-.23-.22-.15-.41-.36-.58-.62-.43-.69-.95-1.34-1.56-1.94-.61-.6-1.42-1.09-2.43-1.46-1.02-.37-2.39-.55-4.12-.55-2.59,0-4.52.53-5.77,1.59-1.25,1.06-1.88,2.41-1.88,4.05,0,.95.26,1.78.78,2.5s1.49,1.36,2.92,1.94c1.43.58,3.5,1.2,6.22,1.85,2.76.61,4.95,1.35,6.55,2.24,1.6.89,2.73,1.93,3.4,3.14.67,1.21,1,2.64,1,4.28,0,1.73-.49,3.33-1.46,4.8-.97,1.47-2.42,2.65-4.34,3.53-1.92.89-4.29,1.33-7.1,1.33Z"/>
    </g>
  </g>
</svg>